# xmcd CD database file
#
# Track frame offsets:
#	150
#	11445
#	27287
#	49190
#	71492
#	86867
#	112105
#	139027
#	154135
#	172312
#	185122
#	199422
#	221030
#	239430
#	253822
#	274820
#
# Disc length: 3898 seconds
#
# Revision: 0
# Processed by: cddbd v1.5.1PL0 Copyright (c) Steve Scherf et al.
# Submitted via: CDex 1.51
#
DISCID=fc0f3810
DTITLE=Clannad - Past Present
DYEAR=1989
DGENRE=New Age
TTITLE0=Theme form Harry's Game
TTITLE1=Closer to your heart
TTITLE2=Almost seems (too late to run)
TTITLE3=The hunter
TTITLE4=Lady Marian
TTITLE5=Sirius
TTITLE6=Coinleach glas an fhomair
TTITLE7=Second nature
TTITLE8=World of difference
TTITLE9=Robin (the hooded man)
TTITLE10=In a lifetime
TTITLE11=Something to believe in
TTITLE12=Newgrange
TTITLE13=Buachail an eirne
TTITLE14=White fool
TTITLE15=Stepping stone
EXTD=YEAR: 1989
EXTT0=
EXTT1=
EXTT2=
EXTT3=
EXTT4=
EXTT5=
EXTT6=
EXTT7=
EXTT8=
EXTT9=
EXTT10=
EXTT11=
EXTT12=
EXTT13=
EXTT14=
EXTT15=
PLAYORDER=
